# xmcd
#
# Track frame offsets:
#	150
#	11857
#	25225
#	39036
#	53634
#	66998
#	79953
#	90476
#	102480
#	114919
#
# Disc length: 1715 seconds
#
# Revision: 0
# Processed by: cddbd v1.5.2PL0 Copyright (c) Steve Scherf et al.
# Submitted via: audiograbber 1.83.01
#
DISCID=7506b10a
DTITLE=The First Ladies of Country - Country Ladies Step Out
DYEAR=2006
DGENRE=Country
TTITLE0=Patsy Cline - Walkin' After Midnight
TTITLE1=Tammy Wynette - D-I-V-O-R-C-E
TTITLE2=Tanya Tucker - Blood Red And Goin' Down
TTITLE3=Jeannie C. Riley - Harper Valley P.T.A.
TTITLE4=Lynn Anderson - Rose Garden
TTITLE5=Janie Fricke - Your Heart's Not In It
TTITLE6=Patsy Cline - Lovesick Blues
TTITLE7=Tammy Wynette - Till I Get It Right
TTITLE8=Barbara Mandrell - The Midnight Oil
TTITLE9=Tanya Tucker - I Believe The South Is Going To Rise Again
EXTD=
EXTT0=
EXTT1=
EXTT2=
EXTT3=
EXTT4=
EXTT5=
EXTT6=
EXTT7=
EXTT8=
EXTT9=
PLAYORDER=
